<svg width="41" height="36" viewBox="0 0 41 36" fill="none" xmlns="http://www.w3.org/2000/svg">
<path d="M23.7959 32.7809V32.6675H22.1684V32.7809C22.1684 32.7809 22.4955 32.7844 22.6087 32.9681V34.0772H21.3392V32.9681C21.3392 32.9681 21.3996 32.8033 21.7829 32.7829V32.6688H20.1562V32.7829C20.1562 32.7829 20.4825 32.7857 20.5952 32.9701V35.5477C20.4824 35.7321 20.1562 35.7349 20.1562 35.7349V35.8482H21.7829V35.7349C21.3996 35.7153 21.3392 35.5489 21.3392 35.5489V34.2829H22.6087V35.5455C22.4955 35.7315 22.1684 35.7328 22.1684 35.7328V35.8469H23.7959V35.7328C23.4118 35.7137 23.3521 35.5476 23.3521 35.5476V32.9667C23.3521 32.9667 23.4118 32.802 23.7959 32.7809ZM20.8293 35.5463H20.7126V32.9844H20.8293V35.5463ZM22.8465 35.5456H22.7305V32.9837H22.8465V35.5456Z" fill="#0099B8"/>
<path d="M30.4932 35.7461C30.4608 35.7377 30.4265 35.7214 30.3916 35.7004C30.16 35.5588 29.888 35.1842 29.888 35.1842C29.4317 34.4568 29.1776 34.3279 29.1776 34.3279C29.1776 34.3279 29.7779 34.159 29.9045 33.7033C29.9889 33.4857 29.8935 33.192 29.8935 33.192C29.6681 32.6414 29.0046 32.6682 29.0046 32.6682H26.9731V32.783C26.9731 32.783 27.2752 32.7844 27.3791 32.9702V35.5477C27.2752 35.7322 26.9731 35.735 26.9731 35.735V35.8483H28.6233V35.735C28.2702 35.7153 28.1685 35.549 28.1685 35.549V34.4624C28.1987 34.4568 28.5127 34.4061 28.9174 35.0687C28.9174 35.0687 29.3997 35.8004 29.506 35.8398L30.2403 35.8446L30.5955 35.8474L30.4932 35.7461ZM29.4475 33.4864C29.451 33.8541 29.1088 34.0455 29.0876 34.0569C29.1178 34.026 29.6564 33.4745 29.0923 32.9246C29.1137 32.9343 29.4517 33.1012 29.4475 33.4864ZM27.6608 35.5462H27.5535V32.9836H27.6608V35.5462ZM28.1683 34.2328V32.968C28.1683 32.968 28.1615 32.9441 28.1718 32.9137L28.1753 32.9145C28.1753 32.9145 29.1152 32.704 29.1982 33.3982C29.1982 33.3982 29.212 33.5532 29.1584 33.7137C28.9351 34.28 28.2069 34.2364 28.1683 34.2328ZM29.3948 35.5215C29.2559 35.3546 28.9976 34.9434 28.9976 34.9434C28.8672 34.7061 28.5724 34.4617 28.5724 34.4617L28.6955 34.4545C28.6955 34.4545 28.9765 34.6785 29.0932 34.8947C29.0932 34.8947 29.4264 35.418 29.5206 35.5214L29.3948 35.5215Z" fill="#0099B8"/>
<path d="M26.698 34.9269C26.5868 35.4058 26.483 35.5064 26.483 35.5064C25.9643 35.7093 25.3686 35.6029 25.3686 35.6029C25.1914 35.5924 25.159 35.41 25.1528 35.3556V34.274H25.8185C25.914 34.2931 26.0088 34.7417 26.0198 34.8114H26.1525V33.5234H26.0226C26.0096 33.6051 25.9175 34.0388 25.8227 34.0783H25.1528V32.9404C25.2552 32.9171 25.905 32.7854 26.3476 32.977C26.3476 32.977 26.465 33.0615 26.5778 33.5419H26.7022L26.7084 32.6743L23.9673 32.668V32.7813C23.9673 32.7813 24.2263 32.7849 24.3163 32.9686V35.5482C24.2263 35.7326 23.9673 35.7354 23.9673 35.7354V35.8487H26.7938L26.8253 34.9213L26.698 34.9269ZM24.6302 35.5304H24.5381V32.9671H24.6302V35.5304Z" fill="#0099B8"/>
<path d="M33.5192 35.4716L32.3299 32.6675H31.199V32.7971C31.199 32.7971 31.5528 32.8006 31.6401 32.9803L30.7016 35.4809C30.6446 35.6182 30.5032 35.676 30.3918 35.7006C30.3074 35.7189 30.2407 35.7182 30.2407 35.7182V35.8485H31.4093V35.7182C31.0466 35.7126 30.9744 35.5225 30.9744 35.5225L31.2204 34.8612H32.457L32.7338 35.5344C32.6734 35.6937 32.2969 35.7182 32.2969 35.7182L32.2984 35.8485H33.9829V35.7182C33.6243 35.7216 33.5192 35.4716 33.5192 35.4716ZM31.2968 34.6526L31.8072 33.2745L32.3726 34.6526H31.2968ZM32.8562 35.5237L31.8436 32.9786H31.9433L32.9826 35.5237H32.8562Z" fill="#0099B8"/>
<path d="M36.7549 34.823C36.6656 35.3032 36.5359 35.5025 36.5359 35.5025C36.0481 35.6785 35.4408 35.5977 35.4408 35.5977C35.2918 35.5892 35.2594 35.4082 35.2554 35.3547V32.9752C35.3089 32.9181 35.3283 32.814 35.691 32.7879V32.6675H34.0668V32.7928C34.0668 32.7928 34.424 32.8168 34.4955 33.0026L34.49 35.5222C34.4185 35.7075 34.0668 35.7159 34.0668 35.7159V35.8483H36.845L36.8697 34.8145L36.7549 34.823ZM34.7441 35.5441H34.6464V32.9942H34.7441V35.5441Z" fill="#0099B8"/>
<path d="M40.3303 33.5664C39.9298 32.637 38.8766 32.6671 38.8766 32.6671H36.9811V32.7855C36.9811 32.7855 37.3597 32.8031 37.418 32.9932V35.5234C37.3595 35.7122 36.9811 35.7298 36.9811 35.7298V35.8481H38.6815C39.4467 35.8326 40.0828 35.47 40.346 34.8939C40.6214 34.2214 40.3303 33.5664 40.3303 33.5664ZM37.6565 35.5334H37.5389V32.9799H37.6565V35.5334ZM38.4835 35.6411C38.1662 35.6157 38.1614 35.4094 38.1614 35.4094L38.16 32.9095C38.16 32.9095 38.3524 32.8546 38.7542 32.8665C38.7542 32.8665 39.1156 32.8525 39.3525 33.156C39.3525 33.156 39.5793 33.4481 39.5951 33.9257L39.6048 34.2221C39.6048 34.2221 39.6199 34.7988 39.4399 35.1136C39.1719 35.6995 38.4835 35.6411 38.4835 35.6411ZM39.2721 35.4946C39.2996 35.4784 39.7428 35.203 39.7578 34.2432C39.7606 34.234 39.7668 34.0862 39.7543 33.9643C39.7379 33.8031 39.7021 33.6559 39.7021 33.6559C39.5839 33.1086 39.2934 32.9538 39.257 32.9362C39.652 33.0355 39.8581 33.5566 39.8808 34.1037C39.9056 34.7144 39.701 35.3601 39.2721 35.4946Z" fill="#0099B8"/>
<path d="M3.23492 33.5702C2.84814 32.6716 1.83 32.6998 1.83 32.6998H-0.000183105V32.8154C-0.000183105 32.8154 0.364616 32.8323 0.420951 33.0167V35.4659C0.364616 35.6491 -0.000183105 35.6659 -0.000183105 35.6659V35.7815H1.64176C2.38166 35.7659 2.99722 35.4153 3.25072 34.8561C3.51522 34.2055 3.23492 33.5702 3.23492 33.5702ZM0.651097 35.4764H0.537741V33.0046H0.651097V35.4764ZM1.45008 35.58C1.14368 35.556 1.14024 35.356 1.14024 35.356L1.13818 32.9349C1.13818 32.9349 1.32367 32.8821 1.71252 32.8933C1.71252 32.8933 2.0622 32.8806 2.2896 33.173C2.2896 33.173 2.51013 33.4567 2.52525 33.9195L2.53418 34.2068C2.53418 34.2068 2.54792 34.7645 2.37479 35.0687C2.11579 35.637 1.45008 35.58 1.45008 35.58ZM2.21197 35.4378C2.23877 35.4223 2.66746 35.1561 2.68188 34.2258C2.68463 34.2174 2.69013 34.0746 2.67845 33.9561C2.66333 33.7998 2.6283 33.6583 2.6283 33.6583C2.5067 33.0928 2.19548 32.9597 2.19548 32.9597C2.57883 33.0548 2.77944 33.5603 2.80005 34.0921C2.82409 34.6828 2.62692 35.3075 2.21197 35.4378Z" fill="#0099B8"/>
<path d="M6.1089 34.8888C6.00035 35.3522 5.89936 35.4494 5.89936 35.4494C5.39716 35.6459 4.82008 35.5431 4.82008 35.5431C4.64901 35.5332 4.6181 35.3557 4.6126 35.3037V34.2573H5.25701C5.34976 34.2749 5.44044 34.7094 5.45143 34.777H5.5799V33.5299H5.45418C5.44113 33.6094 5.3525 34.0285 5.25976 34.0665H4.6126V32.9658C4.71015 32.9433 5.34014 32.815 5.76952 32.9995C5.76952 32.9995 5.88287 33.0827 5.99073 33.5474H6.11096L6.11783 32.7072L3.46393 32.7017V32.8108C3.46393 32.8108 3.714 32.8143 3.80056 32.9932V35.4903C3.714 35.6692 3.46393 35.672 3.46393 35.672V35.7819H6.20096L6.23118 34.8841L6.1089 34.8888ZM4.10559 35.474H4.01628V32.9909H4.10559V35.474Z" fill="#0099B8"/>
<path d="M15.2672 35.4284L14.1131 32.7144H13.0139V32.8391C13.0139 32.8391 13.3567 32.8426 13.4412 33.0179L12.5302 35.4369C12.4333 35.6707 12.0823 35.6672 12.0823 35.6672V35.7953H13.2172V35.6672C12.8655 35.6624 12.7947 35.4784 12.7947 35.4784L13.0338 34.8383H14.236L14.5033 35.4904C14.4463 35.644 14.0801 35.6672 14.0801 35.6672L14.0808 35.7953H15.7179V35.6672C15.3703 35.6698 15.2672 35.4284 15.2672 35.4284ZM13.108 34.6375L13.6054 33.3015L14.1536 34.6375H13.108ZM14.6235 35.4798L13.6397 33.0143H13.7366L14.7458 35.4798H14.6235Z" fill="#0099B8"/>
<path d="M9.20344 35.1796C8.44705 35.8318 7.71264 35.4085 7.71264 35.4085C6.70687 34.8268 7.02976 32.6629 8.41614 32.8954C8.41614 32.8954 8.80704 32.9277 8.85376 33.1354L8.98978 33.5594H9.10726V32.8453C9.10726 32.8453 8.5343 32.5559 7.6144 32.7165C6.87381 32.8622 6.55573 33.5707 6.55573 33.5707C6.55573 33.5707 6.42863 33.7862 6.39565 34.2143C6.39565 34.2143 6.29466 35.2298 7.22762 35.682C7.22762 35.682 7.75386 35.9643 8.54941 35.796C8.54941 35.796 8.94444 35.7228 9.30718 35.3192L9.20344 35.1796ZM6.6045 34.8373C6.45268 34.336 6.56191 33.9107 6.56191 33.9107C6.73984 33.1776 7.27296 32.9649 7.30662 32.9523C6.73504 33.3452 6.65672 33.9333 6.65672 33.9333C6.65672 33.9333 6.62305 34.0636 6.62305 34.3931C6.62305 34.3931 6.60657 35.1881 7.31693 35.581C6.79206 35.3811 6.6045 34.8373 6.6045 34.8373Z" fill="#0099B8"/>
<path d="M12.0854 35.1796C11.329 35.8318 10.5946 35.4085 10.5946 35.4085C9.5881 34.8268 9.91099 32.6629 11.2981 32.8954C11.2981 32.8954 11.689 32.9277 11.735 33.1354L11.8724 33.5594H11.9878V32.8453C11.9878 32.8453 11.4169 32.5559 10.4963 32.7165C9.75573 32.8622 9.43765 33.5707 9.43765 33.5707C9.43765 33.5707 9.31055 33.7862 9.2762 34.2143C9.2762 34.2143 9.17521 35.2298 10.1095 35.682C10.1095 35.682 10.6351 35.9643 11.432 35.796C11.432 35.796 11.8264 35.7228 12.1884 35.3192L12.0854 35.1796ZM9.48642 34.8373C9.3346 34.336 9.44314 33.9107 9.44314 33.9107C9.62176 33.1776 10.1542 32.9649 10.1879 32.9523C9.61695 33.3452 9.53726 33.9333 9.53726 33.9333C9.53726 33.9333 9.50497 34.0636 9.50497 34.3931C9.50497 34.3931 9.4878 35.1881 10.1988 35.581C9.67398 35.3811 9.48642 34.8373 9.48642 34.8373Z" fill="#0099B8"/>
<path d="M18.1112 32.7144L18.1118 32.846C18.4382 32.8482 18.5419 33.0284 18.5419 33.0284L18.5405 34.8193L16.9494 32.7144H15.7925V32.8412C15.7925 32.8412 16.0811 32.8348 16.2171 33.0215L16.2212 35.4743C16.1278 35.6524 15.7884 35.6679 15.7884 35.6679V35.7954H16.9096V35.6645C16.5839 35.6624 16.4795 35.4813 16.4795 35.4813L16.4809 33.325L18.3427 35.7954H18.8043L18.8001 33.0358C18.893 32.8569 19.2323 32.8413 19.2323 32.8413V32.7145L18.1112 32.7144ZM18.274 35.4818L16.4314 33.0227L16.5565 33.0248L18.3997 35.4846L18.274 35.4818Z" fill="#0099B8"/>
<path d="M18.4974 6.51945C16.2853 -0.185265 10.4656 0.0281078 10.4656 0.0281078H-0.000183105V0.885123C-0.000183105 0.885123 2.08762 1.01329 2.41052 2.38155V20.6443C2.08762 22.0119 -0.000183105 22.1392 -0.000183105 22.1392V22.9977H9.38773C13.6197 22.8864 17.1358 20.2639 18.5881 16.1035C20.1043 11.2538 18.4974 6.51945 18.4974 6.51945ZM3.72613 20.7253H3.0776V2.29282H3.72613V20.7253ZM8.29471 21.4993C6.54285 21.3189 6.51949 19.8296 6.51949 19.8296L6.51124 1.77735C6.51124 1.77735 7.57198 1.3837 9.79444 1.46609C9.79444 1.46609 11.7916 1.36609 13.0934 3.55476C13.0934 3.55476 14.3513 5.6723 14.4406 9.11726L14.4908 11.2594C14.4908 11.2594 14.5719 15.4142 13.5826 17.6888C12.0987 21.9211 8.29471 21.4993 8.29471 21.4993ZM12.6448 20.4514C12.6448 20.4514 15.252 18.5641 15.3379 11.4087C15.3537 11.3397 15.3839 10.275 15.3166 9.3933C15.2266 8.22221 15.0308 7.16802 15.0308 7.16802C14.3458 3.01956 12.6077 1.99072 12.5534 1.95974C14.745 2.67028 15.8902 6.43706 16.0132 10.4038C16.1499 14.8163 15.0184 19.476 12.6448 20.4514Z" fill="#0099B8"/>
<path d="M40.4657 0.820396V0H30.4594V0.820396C30.4594 0.820396 32.4737 0.841522 33.1662 2.1774V10.199H25.3584V2.1781C25.3584 2.1781 25.7321 0.978842 28.0873 0.831663V0.0105629H18.0811V0.831663C18.0811 0.831663 20.0954 0.852086 20.7879 2.18866V20.8409C20.0954 22.1774 18.0804 22.198 18.0804 22.198V23.0184H28.0873V22.198C25.7323 22.0501 25.3584 20.8515 25.3584 20.8515V11.6856H33.1662V20.8298C32.4737 22.1656 30.4594 22.1861 30.4594 22.1861V23.0072H40.4657V22.1861C38.1112 22.0396 37.7375 20.841 37.7375 20.841V2.1662C37.7376 2.1662 38.1113 0.966941 40.4657 0.820396ZM22.2278 20.8325H21.5092V2.29295H22.2278V20.8325ZM34.6322 20.8226H33.9136V2.28303H34.6322V20.8226Z" fill="#0099B8"/>
<path d="M24.621 30.3154C24.612 30.2319 24.6104 30.2169 24.588 30.2169C24.5824 30.2169 24.5769 30.2192 24.573 30.2235C24.5657 30.2307 24.5652 30.2399 24.5633 30.2514C24.5196 30.4344 24.4394 30.52 24.4384 30.5216C24.4378 30.5222 24.4374 30.5227 24.437 30.5231C24.2954 30.719 24.069 30.8359 23.8313 30.8359H16.4296C16.1388 30.8359 15.8708 30.6612 15.7472 30.3916C15.7355 30.3643 15.7038 30.2855 15.7004 30.249C15.6995 30.2403 15.6974 30.2168 15.6765 30.2168C15.6541 30.2168 15.6507 30.233 15.6431 30.3159C15.6391 30.3621 15.6365 30.4114 15.6365 30.4388C15.6365 30.8885 15.9935 31.2545 16.4323 31.2545H23.8341C24.2731 31.2545 24.63 30.8885 24.63 30.4388C24.6298 30.4086 24.6252 30.3553 24.621 30.3154Z" fill="#0099B8"/>
<path d="M16.3542 30.6152C16.4339 30.6389 16.5098 30.6512 16.5785 30.6512H16.5786C16.7488 30.6575 16.8664 30.6249 16.9502 30.602C16.9815 30.5937 17.0077 30.5862 17.0308 30.5829C17.0943 30.5741 17.1891 30.5756 17.2976 30.5868C17.339 30.593 17.385 30.5988 17.4342 30.6046C17.7426 30.6406 18.1594 30.6647 18.3676 30.6574C18.3684 30.6574 18.3693 30.6574 18.3703 30.6571H18.3763C18.612 30.6571 18.7793 30.5663 18.8403 30.527C18.9619 30.5955 19.2765 30.6439 19.3988 30.65C19.4883 30.6545 19.5852 30.6571 19.6871 30.6571C20.1343 30.6571 20.617 30.6126 20.8805 30.5711C21.3143 30.6588 22.0341 30.6775 22.5633 30.6775C23.0193 30.6775 23.423 30.6626 23.5008 30.6526L23.534 30.6487C23.681 30.6333 24.0246 30.5974 24.1648 30.2718C24.2208 30.1423 24.2157 30.0064 24.1492 29.8665C24.3733 29.5846 24.4049 29.1028 24.3179 28.763C24.2605 28.5387 24.1536 28.3715 24.1253 28.33C24.1024 28.2666 24.0047 28.0031 23.8767 27.7829C23.7027 27.4514 23.3657 27.2213 22.9023 27.1176C22.5908 27.0479 22.2271 27.0334 21.9438 27.0771C21.9233 27.0804 21.8868 27.087 21.8401 27.0953C21.641 27.1306 21.2267 27.2039 21.0915 27.2081C21.0679 27.2065 21.051 27.1981 21.0386 27.1819C21.0174 27.1542 20.9974 27.0905 21.0228 26.9413C21.0242 26.934 21.0248 26.9286 21.0248 26.9286V26.9289C21.0616 26.7056 21.0028 26.5216 20.8544 26.3963C20.7828 26.336 20.6907 26.3067 20.5732 26.3067C20.4776 26.3067 20.3796 26.3257 20.2875 26.3448C20.2619 26.3502 20.236 26.3563 20.2102 26.3626C20.0849 26.3917 19.9503 26.4162 19.8467 26.3821C19.8345 26.3781 19.8208 26.3717 19.8057 26.363C19.8052 26.3628 19.8047 26.3626 19.8043 26.362C19.6561 26.2771 19.3827 26.0018 19.2299 25.8366C19.2475 25.801 19.2596 25.7703 19.2758 25.7285C19.2858 25.7025 19.2974 25.6727 19.3145 25.6328C19.3287 25.5991 19.3782 25.515 19.4061 25.4698C19.4202 25.4465 19.4247 25.4182 19.4182 25.392C19.4117 25.3651 19.3946 25.342 19.3711 25.3289C19.2912 25.2832 19.2073 25.2627 19.137 25.2541C19.242 25.0734 19.3272 24.8466 19.3374 24.8186C19.3491 24.7867 19.3445 24.752 19.3254 24.725C19.3073 24.699 19.2778 24.6831 19.2428 24.6831H19.2426C18.7804 24.7006 18.5519 24.7943 18.4393 24.8775C18.3898 24.8422 18.3176 24.808 18.2236 24.808C18.1865 24.808 18.1486 24.8132 18.1102 24.824C17.9708 24.8626 17.896 24.9682 17.8603 25.0395C17.7642 25.0634 17.5958 25.14 17.4237 25.3807C17.1867 25.7104 16.9259 25.8769 16.8007 25.9571C16.7714 25.9757 16.7495 25.9896 16.7372 25.9996C16.5761 26.1298 16.4169 26.3288 16.618 26.7204C16.7626 27.002 17.1012 27.1025 17.3702 27.1025C17.4342 27.1025 17.4973 27.0973 17.5583 27.0866C17.5884 27.1351 17.6201 27.2149 17.5869 27.3087C17.57 27.3569 17.546 27.4038 17.5221 27.4503L17.5003 27.4923C17.4422 27.6013 17.3823 27.7139 17.428 27.8964C17.3537 27.9477 17.2599 28.0534 17.2392 28.1729C17.2276 28.2403 17.2298 28.3066 17.2471 28.3742C17.243 28.3735 17.2383 28.3724 17.2326 28.3708L17.1783 28.3559C17.0558 28.3216 16.9154 28.2957 16.7856 28.3484C16.6331 28.4108 16.4167 28.585 16.25 29.0612C16.2047 29.1916 16.1619 29.3144 16.2137 29.4313C16.2178 29.4408 16.2288 29.4656 16.1487 29.5127C16.0855 29.55 16.0432 29.6216 16.0385 29.6993C16.0357 29.7468 16.047 29.7932 16.071 29.8336L16.072 29.8328C16.0734 29.8367 16.075 29.8401 16.0769 29.8431C16.0822 29.8511 16.0837 29.8536 16.0772 29.865C16.0531 29.9041 16.0284 29.9467 16.0113 29.9961C15.9749 30.1003 15.9703 30.1236 15.9594 30.1786C15.9299 30.3263 16.0692 30.5302 16.3542 30.6152ZM16.042 30.1869C16.051 30.1415 16.0548 30.1227 16.0891 30.0241C16.1046 29.9789 16.1303 29.9372 16.1478 29.9086C16.17 29.8711 16.1695 29.8336 16.1457 29.7956C16.1456 29.7956 16.1442 29.7936 16.1428 29.7912C16.1423 29.7905 16.142 29.7897 16.1415 29.789C16.1262 29.7636 16.1192 29.7344 16.121 29.7042C16.124 29.6542 16.1504 29.609 16.1899 29.5859C16.2865 29.5291 16.3199 29.4652 16.289 29.3957C16.2528 29.3143 16.2803 29.2263 16.3278 29.0892C16.4841 28.6428 16.6797 28.4828 16.8162 28.4267C16.9259 28.3822 17.0405 28.4047 17.1566 28.4371L17.2186 28.4541C17.2778 28.4693 17.3111 28.4501 17.3234 28.4327C17.3324 28.42 17.341 28.3976 17.3304 28.3638C17.3133 28.3072 17.31 28.2479 17.3204 28.187C17.339 28.0803 17.4357 27.9845 17.4952 27.9529C17.5131 27.9434 17.5217 27.9224 17.5157 27.9029C17.4646 27.7351 17.5123 27.6455 17.5726 27.5322L17.5959 27.4875C17.6203 27.4401 17.6456 27.3906 17.6645 27.3369C17.7181 27.1847 17.6441 27.0603 17.6097 27.0139C17.6001 27.0011 17.5845 26.9948 17.569 26.9978C17.5051 27.0104 17.4382 27.0169 17.37 27.0169C17.1253 27.0169 16.8186 26.9286 16.691 26.6803C16.5199 26.3467 16.6365 26.1876 16.7883 26.0655C16.7992 26.0567 16.8186 26.0447 16.8443 26.0283C16.974 25.9454 17.2438 25.7732 17.4902 25.4303C17.6651 25.1857 17.8324 25.1299 17.8964 25.1175C17.9095 25.1151 17.9206 25.1061 17.926 25.0935C17.9514 25.0376 18.0118 24.9387 18.1318 24.9054C18.1631 24.8966 18.1939 24.8922 18.2236 24.8922C18.3118 24.8922 18.3753 24.931 18.4133 24.9632C18.4287 24.9765 18.451 24.9766 18.4664 24.963C18.5413 24.8984 18.7422 24.7866 19.2464 24.7676C19.251 24.7676 19.2554 24.7699 19.2585 24.7742C19.2613 24.7784 19.262 24.7836 19.2602 24.7885C19.2557 24.8005 19.1494 25.0862 19.0309 25.2677C19.0225 25.2806 19.0216 25.297 19.0285 25.3107C19.0355 25.3246 19.0493 25.333 19.0643 25.3336C19.1338 25.3351 19.2365 25.3482 19.3313 25.4026C19.3346 25.4045 19.3373 25.4079 19.3382 25.4122C19.3393 25.4163 19.3385 25.4207 19.3364 25.4241C19.3333 25.429 19.2606 25.5472 19.239 25.5986C19.2213 25.6396 19.2093 25.6703 19.1959 25.7049C19.1794 25.7479 19.1671 25.7789 19.1435 25.823C19.1349 25.8391 19.1373 25.8591 19.1495 25.8726C19.1911 25.9181 19.5609 26.3191 19.7629 26.4351C19.7634 26.4356 19.7638 26.4359 19.7644 26.4362C19.7851 26.4481 19.8044 26.4571 19.8213 26.4626C19.943 26.5027 20.093 26.4766 20.2284 26.4448C20.2539 26.4389 20.2791 26.4331 20.3043 26.4277C20.3923 26.4091 20.4855 26.391 20.5733 26.391C20.671 26.391 20.7458 26.414 20.802 26.4615C20.9264 26.5663 20.9751 26.7229 20.9435 26.9144C20.9434 26.9158 20.9417 26.9256 20.9417 26.9268C20.9326 26.9806 20.9048 27.1442 20.9739 27.2341C21.0009 27.2692 21.0397 27.2892 21.0901 27.2922C21.2351 27.2882 21.6381 27.217 21.8542 27.1787C21.9005 27.1705 21.9367 27.1642 21.957 27.1608C22.0595 27.1446 22.1775 27.1363 22.298 27.1363C22.4954 27.1363 22.6985 27.1584 22.8849 27.2001C23.3243 27.2984 23.642 27.5139 23.8051 27.8245C23.9342 28.0462 24.0316 28.3129 24.0499 28.364C24.0513 28.3676 24.0529 28.3709 24.055 28.3742C24.0758 28.404 24.1819 28.5647 24.2384 28.7843C24.32 29.1039 24.2884 29.5799 24.0685 29.833C24.0566 29.8465 24.0547 29.8665 24.0634 29.882L24.0734 29.8998C24.1303 30.0167 24.1359 30.1303 24.0896 30.2374C23.9687 30.5176 23.6698 30.5491 23.5259 30.5643L23.4908 30.5683C23.4275 30.5765 23.0431 30.5926 22.5636 30.5926H22.5634C22.1308 30.5926 21.3382 30.579 20.8897 30.4864C20.887 30.4857 20.8842 30.4853 20.8815 30.4853C20.8797 30.4853 20.8772 30.4857 20.8751 30.486C20.6165 30.5274 20.1343 30.5721 19.6873 30.5721C19.5867 30.5721 19.4911 30.57 19.4031 30.5654C19.2462 30.5575 18.9303 30.4969 18.8663 30.4434C18.8522 30.4317 18.8305 30.4311 18.8155 30.4424C18.7975 30.4556 18.6338 30.5721 18.3667 30.5721H18.3665C18.3645 30.5719 18.3622 30.5725 18.3601 30.5728C18.154 30.5798 17.746 30.5555 17.4438 30.5204C17.3954 30.5148 17.3503 30.509 17.3077 30.5029C17.1895 30.4905 17.0903 30.4894 17.0201 30.4989C16.9941 30.5025 16.9643 30.5105 16.9292 30.5204C16.8568 30.5398 16.7575 30.5672 16.6204 30.5672C16.6079 30.5672 16.5949 30.5669 16.5803 30.5664C16.5181 30.5664 16.4498 30.5555 16.3774 30.5338C16.128 30.4594 16.0215 30.2894 16.042 30.1869Z" fill="#0099B8"/>
<path d="M22.6702 27.5788L22.6746 27.5836C22.7721 27.6948 22.8813 27.8197 23.0005 27.928L23.0057 27.9328C23.2633 28.1839 23.4845 28.187 23.4937 28.187C23.652 28.187 23.78 28.0904 23.8154 28.0608C23.8155 28.0608 23.8155 28.0608 23.8155 28.0606C23.7943 28.0157 23.7761 27.9789 23.7581 27.9449C23.7464 27.9215 23.6811 27.8119 23.6587 27.7792C23.6305 27.7362 23.5993 27.6963 23.5637 27.6588C23.2894 27.3731 22.8639 27.279 22.5556 27.2505L22.5497 27.2509C22.4925 27.2457 22.4344 27.2421 22.3754 27.2405C22.3541 27.2395 22.3328 27.2393 22.3113 27.2393C22.3872 27.2917 22.4568 27.3495 22.5184 27.4121C22.5639 27.4581 22.6131 27.5139 22.6702 27.5788Z" fill="#0099B8"/>
<path d="M18.7262 26.1583H18.7249C18.7535 26.2467 18.8028 26.4568 18.6926 26.6208C18.5563 26.823 18.2909 26.8717 18.0973 26.907L18.051 26.9154C18.0371 26.9188 18.018 26.9216 17.9958 26.9251C17.9431 26.933 17.82 26.9519 17.8212 26.9916C17.823 27.0433 17.8673 27.0731 17.9429 27.0731C17.9714 27.0731 18.0018 27.0688 18.0326 27.0602C18.077 27.0426 18.1257 27.0208 18.1755 26.9959C18.1868 26.9901 18.1991 26.9874 18.2121 26.9874C18.2445 26.9874 18.2733 27.0059 18.2873 27.0352C18.2971 27.0556 18.2986 27.0791 18.2914 27.1007C18.284 27.1223 18.269 27.1397 18.2488 27.1498C18.1371 27.2057 18.0324 27.2466 17.9373 27.2705C17.9194 27.2778 17.9132 27.2898 17.9184 27.31C17.9266 27.3415 17.9413 27.3437 17.9641 27.3418C18.3919 27.2402 19.0263 27.0043 19.6184 26.4575C19.4378 26.3215 19.2132 26.0875 19.1125 25.979C19.0414 26.0513 18.9055 26.1583 18.7262 26.1583Z" fill="#0099B8"/>
<path d="M18.5687 25.3744C18.709 25.3744 18.8829 25.2635 18.9919 25.1047C19.0603 25.0049 19.0968 24.9319 19.1207 24.8794C18.8292 24.9153 18.479 25.0071 18.4129 25.1545C18.3911 25.2027 18.4012 25.2576 18.4427 25.3174C18.4686 25.3547 18.5122 25.3744 18.5687 25.3744Z" fill="#0099B8"/>
<path d="M17.605 28.1612H17.6481C17.8571 28.1612 18.0837 28.1442 18.3211 28.1107C18.8049 28.0422 19.5784 27.8664 20.5164 27.4169C20.5243 27.4124 20.5297 27.4008 20.5279 27.3901C20.5265 27.3815 20.5165 27.3532 20.4441 27.343C20.2614 27.3057 20.23 27.1562 20.2295 27.1542C20.2295 27.1542 20.1977 27.0891 20.2501 27.0465C20.288 27.0231 20.3412 27.0358 20.3646 27.0744C20.3666 27.0779 20.4192 27.1598 20.5448 27.1598H20.5545C20.6685 27.1559 20.8078 27.056 20.8352 26.958C20.8793 26.7699 20.8473 26.6292 20.7402 26.5401C20.7007 26.5073 20.646 26.4917 20.5725 26.4917C20.5474 26.4917 20.5198 26.4934 20.4886 26.4972C20.3091 26.5307 20.1882 26.6793 20.1428 26.7351L20.0417 26.8596C19.6052 27.3625 19.0704 27.5993 18.5556 27.78C18.1105 27.9364 17.7441 27.9791 17.6074 27.9903C17.5754 27.9947 17.5279 28.0225 17.5316 28.0809C17.5345 28.1247 17.5718 28.1576 17.605 28.1612Z" fill="#0099B8"/>
<path d="M17.5905 29.9958C17.5419 29.9253 17.4676 29.8296 17.3758 29.7581C17.2676 29.6741 17.1588 29.675 17.0996 29.7118C17.0353 29.7515 17.0239 29.8112 17.0137 29.8571C17.0018 29.9106 16.982 30.0383 16.9636 30.1612C16.9467 30.2757 17.0606 30.3529 17.2411 30.3233C17.45 30.2918 17.7402 30.2352 17.5909 29.9962C17.5905 29.996 17.5905 29.9958 17.5905 29.9958Z" fill="#0099B8"/>
<path d="M16.1476 30.2393C16.1482 30.2375 16.149 30.2351 16.1505 30.229C16.1755 30.1227 16.209 30.0491 16.2095 30.0484C16.2238 30.017 16.2409 30.0009 16.2599 30.0009C16.2652 30.0009 16.2703 30.002 16.2747 30.0039C16.2814 30.0071 16.2859 30.012 16.2884 30.0194C16.2955 30.0392 16.2861 30.0687 16.2792 30.0842C16.2717 30.1014 16.2334 30.1945 16.2131 30.3135C16.2102 30.3356 16.2698 30.3575 16.2623 30.3539C16.2698 30.3575 16.2762 30.3606 16.2834 30.3631C16.362 30.3931 16.4092 30.3294 16.4263 30.1697C16.4535 29.9106 16.405 29.8767 16.3696 29.8518L16.3605 29.8451C16.3275 29.8222 16.2917 29.7932 16.2895 29.743C16.2982 29.6415 16.3951 29.6415 16.4592 29.6415C16.4936 29.6415 16.5323 29.6431 16.592 29.6463C16.6595 29.6513 16.7083 29.6169 16.73 29.5538C16.7547 29.4826 16.7385 29.3763 16.6599 29.3108C16.5372 29.2047 16.4945 29.1316 16.5211 29.0736C16.5345 29.0438 16.5605 29.0274 16.5942 29.0274C16.6273 29.0274 16.6706 29.0431 16.727 29.0753C16.7413 29.0836 16.7562 29.0879 16.7714 29.0879C16.8434 29.0879 16.9107 28.9924 16.9362 28.9512C16.9707 28.8954 17.0135 28.8265 17.0907 28.7646C17.1348 28.7305 17.1943 28.7279 17.2241 28.7608C17.2409 28.7798 17.2479 28.8067 17.2446 28.8414C17.2406 28.8827 17.2263 28.9357 17.2033 28.995C17.1624 29.0945 17.1586 29.1846 17.1921 29.2632C17.2242 29.3376 17.2917 29.4002 17.3729 29.4305C17.5163 29.4832 17.5736 29.4682 17.7174 29.4186C17.8206 29.3827 17.8833 29.3873 17.9077 29.4305C17.9252 29.4622 17.9173 29.5075 17.8842 29.5652C17.8063 29.7012 17.7469 29.8675 17.8145 29.9276C17.8143 29.9268 17.8264 29.9185 17.8396 29.8911C17.8825 29.7986 17.9546 29.6441 18.1298 29.6441C18.1625 29.6441 18.1976 29.65 18.234 29.6614C18.2547 29.6676 18.261 29.6834 18.2626 29.69C18.2667 29.7062 18.2608 29.724 18.2456 29.7407C18.1834 29.8109 18.0534 29.9928 18.1966 30.1609C18.2381 30.2087 18.2997 30.2403 18.3741 30.2523C18.3974 30.2559 18.4204 30.2578 18.4424 30.2578C18.6259 30.2578 18.7082 30.1291 18.7261 30.0611C18.7319 30.0387 18.7353 30.0176 18.7384 29.9974C18.7466 29.9443 18.755 29.8908 18.7996 29.8101C18.8395 29.714 18.9133 29.6265 19.0179 29.5519C19.2514 29.3852 19.3934 29.1291 19.4185 29.0548L19.427 29.0298C19.4494 28.9624 19.4617 28.9253 19.5157 28.9234C19.5442 28.9234 19.5659 28.9344 19.5803 28.9545C19.6048 28.9889 19.6044 29.047 19.5788 29.1267C19.5497 29.2179 19.4035 29.4423 19.289 29.5714C19.2271 29.6412 19.1692 29.8439 19.223 29.9904C19.2548 30.0772 19.321 30.1269 19.4201 30.1385C19.437 30.1392 19.4529 30.1401 19.4673 30.1409C19.5746 30.1491 19.668 30.153 19.7531 30.153C20.0027 30.153 20.179 30.1198 20.2768 30.0542C20.3769 29.987 20.4256 29.9366 20.4566 29.868C20.51 29.7287 20.5557 29.5397 20.5962 29.2914C20.7099 28.5924 20.5294 28.1942 20.4545 28.0654C20.4277 28.0928 20.3886 28.1228 20.3385 28.1351C20.3229 28.1392 20.3071 28.1413 20.2916 28.1413C20.2402 28.1413 20.1996 28.12 20.1735 28.1013C20.16 28.1354 20.1336 28.1791 20.0815 28.2001C20.0523 28.212 20.0228 28.2182 19.994 28.2182C19.9456 28.2182 19.9081 28.2008 19.8836 28.1847C19.8703 28.2231 19.8378 28.2799 19.7596 28.3004C19.7405 28.3054 19.7214 28.308 19.7025 28.308C19.6571 28.308 19.623 28.2926 19.6008 28.278C19.5861 28.3146 19.5533 28.3613 19.4792 28.3822C19.4602 28.3875 19.4408 28.3903 19.4221 28.3903C19.3773 28.3903 19.341 28.3749 19.3149 28.3579C19.3045 28.4001 19.2751 28.4615 19.1932 28.4817C19.174 28.4863 19.1547 28.4888 19.1364 28.4888C19.0787 28.4888 19.0373 28.4649 19.0117 28.4433C18.9957 28.4786 18.9614 28.522 18.8881 28.539C18.868 28.5435 18.8482 28.546 18.8293 28.546C18.7737 28.546 18.7347 28.5256 18.7108 28.5066C18.6946 28.5403 18.6609 28.5832 18.5934 28.602C18.572 28.6076 18.5512 28.6106 18.5315 28.6106C18.4885 28.6106 18.4555 28.5979 18.4325 28.5844C18.4152 28.6115 18.3811 28.6469 18.3178 28.6616C18.3007 28.6657 18.2838 28.6677 18.2679 28.6677C18.2061 28.6677 18.1656 28.6385 18.1417 28.6127C18.1331 28.6289 18.1241 28.6502 18.1229 28.6727C18.1201 28.7167 18.124 28.7503 18.2334 28.8826C18.2727 28.9305 18.3317 28.9897 18.384 29.042L18.3868 29.045C18.5322 29.1906 18.6462 29.3051 18.6105 29.3755C18.5967 29.4026 18.5705 29.4174 18.5364 29.4174C18.4751 29.4174 18.3797 29.3719 18.2269 29.27C18.2123 29.2599 18.1976 29.2498 18.1827 29.2396L18.1713 29.2294C18.1314 29.2007 18.0236 29.1223 17.9689 29.0819C17.8934 29.0262 17.5561 28.7965 17.4347 28.7225C17.4325 28.7213 17.4287 28.7189 17.4237 28.7155L17.4142 28.7091C17.3412 28.659 17.119 28.5068 16.9401 28.5068C16.9079 28.5068 16.8788 28.512 16.854 28.5223C16.7361 28.5705 16.5655 28.7142 16.4218 29.126C16.3985 29.1874 16.3625 29.3161 16.3802 29.3532C16.4118 29.4244 16.4353 29.5605 16.24 29.675C16.2298 29.6812 16.2222 29.6957 16.2213 29.711C16.2211 29.7129 16.2213 29.7154 16.2216 29.7183C16.2218 29.7209 16.2224 29.7234 16.2231 29.7261C16.2273 29.7447 16.234 29.7606 16.2438 29.7751L16.2463 29.7784C16.2481 29.7808 16.2497 29.7831 16.2515 29.7855C16.2853 29.8383 16.2657 29.8906 16.2266 29.9539C16.2165 29.9699 16.2075 29.9864 16.1991 30.0029C16.2001 30.0016 16.2013 30.0011 16.2024 30.0002C16.1947 30.0097 16.1875 30.0204 16.1811 30.0341C16.1807 30.0346 16.1456 30.1289 16.1311 30.1775C16.1116 30.2394 16.1357 30.2706 16.1357 30.2706L16.1476 30.2393ZM16.3084 30.0968C16.3113 30.0904 16.3227 30.0641 16.3227 30.0362C16.3227 30.0641 16.3113 30.0905 16.3085 30.0968C16.303 30.1095 16.2808 30.1635 16.2618 30.2378C16.2808 30.1635 16.303 30.1095 16.3084 30.0968Z" fill="#0099B8"/>
<path d="M20.7344 27.8328C20.6881 27.8517 20.6514 27.8884 20.6332 27.9334C20.6128 27.9841 20.6163 28.044 20.6432 28.107C20.6599 28.1482 20.6849 28.2214 20.7019 28.2765C20.7133 28.3141 20.7513 28.4016 20.8555 28.4016C20.8711 28.4016 20.888 28.3997 20.9055 28.3955C21.0453 28.3628 21.0426 28.2946 21.0391 28.2155C21.036 28.144 21.0077 28.0043 20.9715 27.9182C20.9362 27.8345 20.868 27.8169 20.8172 27.8169C20.7892 27.8171 20.7588 27.823 20.7344 27.8328Z" fill="#0099B8"/>
<path d="M20.9218 29.2122C20.9188 29.2122 20.9155 29.2119 20.9122 29.2119C20.8169 29.2119 20.7608 29.2554 20.7452 29.3415C20.7345 29.402 20.7278 29.4405 20.7232 29.4685C20.7195 29.4906 20.7166 29.5069 20.7135 29.5238C20.7094 29.5454 20.7129 29.606 20.7493 29.6541C20.7775 29.6917 20.8191 29.7129 20.8727 29.7165C20.8788 29.717 20.885 29.7172 20.8912 29.7172C20.9843 29.7172 21.0417 29.6646 21.0615 29.5604C21.07 29.5145 21.0825 29.406 21.0843 29.3606C21.0851 29.3376 21.0726 29.2985 21.0432 29.2662C21.0217 29.2425 20.9835 29.214 20.9218 29.2122Z" fill="#0099B8"/>
<path d="M20.9258 28.5205C20.878 28.5205 20.8324 28.5395 20.8011 28.5725C20.7702 28.6052 20.7546 28.6499 20.7559 28.7012C20.7578 28.7633 20.7603 28.8032 20.762 28.8352C20.764 28.8658 20.7654 28.8895 20.7654 28.9178C20.7654 28.9949 20.7938 29.0865 20.9287 29.0865V29.0899L20.9289 29.0865C21.0772 29.0865 21.1 28.9888 21.1042 28.9153C21.1077 28.8533 21.1005 28.7263 21.0891 28.6488C21.0737 28.5447 20.9934 28.5214 20.9289 28.5205H20.9258Z" fill="#0099B8"/>
<path d="M21.8199 29.8874C21.8199 29.8874 21.8952 29.8683 21.8199 29.8177C21.7449 29.767 21.611 29.695 21.4445 29.7648C21.2777 29.8345 21.2706 29.9646 21.3551 30.0005C21.4397 30.0367 21.5392 30.0504 21.5264 30.0847C21.5051 30.1424 21.2799 30.0197 21.2591 30.183C21.2437 30.303 21.3106 30.3456 21.4797 30.3596C21.4954 30.3596 21.5049 30.3551 21.5049 30.3435C21.5064 30.2708 21.5297 29.9936 21.8199 29.8874Z" fill="#0099B8"/>
<path d="M22.3013 30.1099C22.1946 30.1048 21.9969 30.0817 21.9192 29.9833C21.9106 29.971 21.8967 29.9678 21.8796 29.9733C21.8087 29.9974 21.6227 30.0834 21.6011 30.3333C21.5987 30.3562 21.6046 30.367 21.614 30.3752C21.638 30.3964 21.6904 30.4337 21.7616 30.4383C21.7745 30.4391 21.7847 30.4319 21.7855 30.4208C21.7885 30.3754 21.8058 30.2527 21.8763 30.152C21.9249 30.0732 21.9928 30.1338 21.9582 30.1886C21.9398 30.2211 21.8877 30.3418 21.8965 30.4359C21.8979 30.4502 21.9096 30.4607 21.9257 30.4638C21.9681 30.4725 22.0716 30.4904 22.1972 30.4703C22.2029 30.4694 22.2192 30.4647 22.2271 30.4574C22.2571 30.431 22.3291 30.3621 22.3648 30.1531C22.3729 30.1244 22.3285 30.1107 22.3013 30.1099Z" fill="#0099B8"/>
<path d="M22.2468 29.8407C22.1115 29.8305 22.1105 29.7702 22.1099 29.7445C22.1088 29.6999 22.154 29.6637 22.1722 29.6506C22.1208 29.6043 22.0996 29.5348 22.0996 29.5347C22.0466 29.5682 21.9736 29.6422 21.9756 29.7474C21.9768 29.8106 22.005 29.9604 22.2377 29.978C22.3402 29.9842 22.4041 30.0113 22.4152 30.0235C22.4152 30.0235 22.4403 29.961 22.5179 29.9356C22.4551 29.8596 22.2949 29.8438 22.2468 29.8407Z" fill="#0099B8"/>
<path d="M22.9214 30.0211C22.9214 30.0211 22.7923 29.9732 22.6551 29.9833C22.5582 29.9976 22.4908 30.0489 22.4846 30.1326C22.4651 30.3803 22.7238 30.3708 22.8295 30.3633C22.9352 30.3561 23.3237 30.3633 23.3237 30.3633C23.217 30.1878 23.066 30.0763 22.9214 30.0211Z" fill="#0099B8"/>
<path d="M21.2315 29.2132C21.2325 29.3834 21.3395 29.4964 21.5501 29.5471C21.5781 29.5527 21.6059 29.5555 21.6319 29.5555C21.8324 29.5555 21.8866 29.3751 21.9443 29.1842L21.9553 29.1475C22.0147 28.9528 22.1349 28.7973 22.3124 28.6851C22.3888 28.6308 22.4498 28.6052 22.4503 28.6049C22.4603 28.6008 22.4709 28.5984 22.4819 28.5984C22.5157 28.5984 22.5462 28.6194 22.5592 28.6516C22.5677 28.6729 22.5674 28.696 22.5592 28.7172C22.5504 28.7384 22.5344 28.7547 22.5139 28.7632C22.5027 28.7682 22.2312 28.8942 22.1688 29.1613C22.1399 29.2858 22.1764 29.4356 22.2669 29.5624C22.3419 29.6675 22.52 29.848 22.8687 29.8741L22.9287 29.8786C22.9332 29.8775 22.938 29.8774 22.9429 29.8774C23.3627 29.8774 23.6515 29.7804 23.8013 29.5889C23.9542 29.3934 23.9161 29.1472 23.9008 29.0767C23.8961 29.0544 23.9001 29.0313 23.9119 29.012C23.9239 28.9929 23.9421 28.9796 23.9641 28.9743C23.9706 28.973 23.9766 28.9724 23.9824 28.9724C24.0217 28.9724 24.0554 29.0001 24.064 29.0396C24.0835 29.1291 24.1311 29.4417 23.9317 29.6962C23.9251 29.7043 23.9185 29.7127 23.9088 29.7234C23.8595 29.782 23.808 29.8278 23.755 29.8597C23.7622 29.8608 23.7714 29.8612 23.7817 29.8612C23.8386 29.8612 23.9253 29.8406 24.0155 29.7418C24.1939 29.5111 24.215 29.0894 24.1436 28.8102C24.1044 28.6575 24.0322 28.522 24.0007 28.4672C23.8872 28.5424 23.7111 28.6271 23.4946 28.6271C23.3021 28.6271 22.9958 28.5292 22.7124 28.2542C22.5771 28.1304 22.4552 27.9914 22.3571 27.88L22.3516 27.8736C22.3018 27.8167 22.2549 27.7631 22.2177 27.7256C22.0712 27.5781 21.8919 27.4953 21.7671 27.4517C21.7591 27.4495 21.7495 27.4467 21.74 27.4439L21.728 27.4403C21.6946 27.4303 21.657 27.4188 21.6125 27.4091C21.5348 27.3922 21.4673 27.39 21.3991 27.4024C21.3664 27.4122 21.3339 27.421 21.3074 27.4275L21.3006 27.43C21.2978 27.4312 21.2951 27.4318 21.2923 27.433C21.1877 27.4838 21.0697 27.585 21.1073 27.7777C21.1155 27.8138 21.2932 28.6192 21.2315 29.2132ZM23.9301 28.584C23.9406 28.6059 23.9461 28.6299 23.9461 28.6542C23.9461 28.7378 23.885 28.8061 23.81 28.8061C23.7437 28.8061 23.6884 28.7539 23.6763 28.6801C23.7624 28.6606 23.8468 28.6288 23.9301 28.584ZM23.4934 28.7021C23.5269 28.7016 23.5604 28.6992 23.5966 28.6944C23.6091 28.7725 23.6574 28.8391 23.7242 28.8706C23.6983 28.8911 23.6666 28.9023 23.6332 28.9023C23.5515 28.9023 23.4851 28.8342 23.4851 28.7504C23.4851 28.7347 23.4876 28.7189 23.4934 28.7021ZM23.3129 28.6811C23.3456 28.6885 23.378 28.6939 23.4098 28.6973C23.4056 28.7152 23.4036 28.7328 23.4036 28.7503C23.4036 28.8063 23.4225 28.8592 23.4574 28.9016C23.3714 28.9099 23.2958 28.8385 23.2958 28.7503C23.2959 28.7273 23.3012 28.7044 23.3129 28.6811ZM23.122 28.6196C23.1579 28.6347 23.1946 28.6478 23.2331 28.6597C23.2207 28.689 23.2147 28.7197 23.2147 28.7503C23.2147 28.7952 23.2266 28.8381 23.2503 28.8757C23.1565 28.8905 23.0791 28.817 23.0791 28.7256C23.0791 28.6868 23.0942 28.649 23.122 28.6196ZM22.9514 28.5318C22.983 28.5509 23.0144 28.5683 23.0447 28.5835C23.0144 28.6244 22.9975 28.6742 22.9975 28.7258C22.9975 28.7522 23.0019 28.7782 23.0106 28.8035C22.9415 28.7901 22.8899 28.7282 22.8899 28.6544C22.8901 28.6063 22.9125 28.5616 22.9514 28.5318ZM22.7895 28.4185C22.8181 28.4414 22.8482 28.4639 22.8794 28.4853C22.8344 28.5297 22.8087 28.5902 22.8087 28.6542C22.8087 28.6708 22.8105 28.6879 22.8141 28.7041C22.7486 28.6879 22.7012 28.6274 22.7012 28.5566C22.7012 28.4968 22.7353 28.4437 22.7895 28.4185ZM22.6239 28.269C22.6439 28.2882 22.6607 28.3043 22.6761 28.3185C22.6906 28.3325 22.7061 28.3467 22.7226 28.3615C22.6627 28.4023 22.6248 28.4695 22.6204 28.5424C22.5703 28.517 22.5377 28.4647 22.5377 28.4064C22.5376 28.3475 22.5705 28.2948 22.6239 28.269ZM22.4697 28.1107C22.5025 28.1462 22.533 28.1785 22.5627 28.2089C22.5014 28.2485 22.4625 28.3154 22.4571 28.3912C22.4048 28.3664 22.3708 28.3131 22.3708 28.2533C22.3708 28.1902 22.4104 28.1335 22.4697 28.1107ZM22.3284 27.9532L22.3369 27.9626C22.3604 27.9895 22.3851 28.0173 22.4108 28.0462C22.346 28.0818 22.3023 28.1462 22.292 28.2204C22.2527 28.1921 22.2288 28.146 22.2288 28.096C22.2289 28.0326 22.2686 27.9755 22.3284 27.9532ZM22.1621 27.7712C22.1681 27.7767 22.1743 27.7829 22.1802 27.7888C22.2071 27.8161 22.2403 27.8532 22.271 27.8878C22.2082 27.9214 22.1638 27.9831 22.1512 28.0539C22.0974 28.0297 22.0624 27.9755 22.0624 27.9145C22.0624 27.8509 22.1019 27.7937 22.1621 27.7712ZM21.9864 27.6374C22.0241 27.6603 22.0602 27.6855 22.094 27.7119C22.0261 27.7533 21.9823 27.8285 21.9809 27.9096C21.932 27.8836 21.9005 27.8317 21.9005 27.775C21.9005 27.7164 21.9331 27.6639 21.9864 27.6374Z" fill="#0099B8"/>
<path d="M17.7068 27.614C17.71 27.614 17.7121 27.6137 17.7124 27.6137L17.7241 27.6123C17.7217 27.6296 17.7202 27.6567 17.7288 27.679C17.6991 27.693 17.6776 27.7228 17.6776 27.7587C17.6776 27.8078 17.7167 27.8478 17.7645 27.8478C17.8125 27.8478 17.8514 27.808 17.8514 27.7587C17.8514 27.7102 17.8135 27.6705 17.7667 27.6697C17.7665 27.6697 17.7667 27.6693 17.7665 27.6693C17.7574 27.6555 17.7599 27.6252 17.7636 27.6077L17.7644 27.6075C17.8228 27.6001 17.8841 27.5894 17.947 27.5759L17.9512 27.5749C17.9489 27.5947 17.9484 27.6227 17.9579 27.6443C17.9356 27.6583 17.9199 27.6822 17.9199 27.7109C17.9199 27.7547 17.9547 27.7902 17.9974 27.7902C18.0401 27.7902 18.0748 27.7547 18.0748 27.7109C18.0748 27.6672 18.0401 27.6315 17.9974 27.6315C17.9962 27.6315 17.9953 27.6323 17.9941 27.6323V27.632C17.9856 27.6188 17.9872 27.5871 17.9912 27.5659L17.9926 27.5656C18.0413 27.5543 18.0921 27.5407 18.1485 27.5245L18.1541 27.5229C18.1521 27.5405 18.1518 27.5648 18.1598 27.5849C18.1419 27.5963 18.1295 27.6161 18.1295 27.6393C18.1295 27.6752 18.158 27.7044 18.1929 27.7044C18.2278 27.7044 18.2564 27.6752 18.2564 27.6393C18.2564 27.6051 18.23 27.5777 18.1973 27.5752V27.5747C18.1879 27.5603 18.1908 27.5286 18.1949 27.511C18.2204 27.5034 18.2442 27.4957 18.2665 27.4887L18.2835 27.4833L18.2884 27.4855C18.3009 27.4957 18.3426 27.5183 18.3964 27.5183C18.4142 27.5183 18.4313 27.516 18.4479 27.511C18.5246 27.4884 18.549 27.4263 18.5569 27.3912L18.5578 27.387L18.5692 27.3808L18.5753 27.3789L18.58 27.3867C18.5922 27.4088 18.6293 27.4232 18.6725 27.4232C18.6975 27.4232 18.723 27.4184 18.7465 27.4093C18.8189 27.3814 18.8391 27.3181 18.8341 27.2729L18.8332 27.2649L18.8528 27.2548L18.8586 27.261C18.8808 27.2869 18.9168 27.3017 18.9577 27.3017C18.9828 27.3017 19.0087 27.2958 19.0328 27.2851C19.0942 27.2573 19.1225 27.1957 19.1031 27.1316L19.1006 27.123L19.108 27.1184C19.1093 27.1174 19.1108 27.1168 19.1121 27.1159L19.1212 27.1109L19.127 27.1175C19.1535 27.147 19.1912 27.1641 19.2303 27.1641C19.2552 27.1641 19.2799 27.1571 19.3014 27.1443C19.3607 27.1081 19.3852 27.034 19.3602 26.9684L19.3567 26.9598L19.3778 26.9453L19.3842 26.9518C19.4105 26.9778 19.4452 26.992 19.4816 26.992C19.5122 26.992 19.5413 26.9821 19.5657 26.9631C19.6207 26.9205 19.6371 26.8442 19.6048 26.7818L19.6006 26.7736L19.619 26.7579L19.6261 26.7649C19.6481 26.786 19.6796 26.7975 19.7147 26.7975C19.7594 26.7975 19.8023 26.7791 19.8357 26.7455C19.8784 26.7029 19.8982 26.6224 19.8591 26.5602C19.8376 26.5557 19.8168 26.5499 19.797 26.5435C19.7898 26.5413 19.7741 26.5341 19.7651 26.5298C19.7211 26.572 19.6844 26.6056 19.6505 26.6356C19.4352 26.8274 19.193 26.9958 18.9311 27.1362C18.7366 27.2411 18.5351 27.3295 18.3315 27.3981C18.0422 27.4961 17.8146 27.5345 17.7047 27.5483C17.6754 27.5574 17.6723 27.5721 17.6739 27.5863C17.6756 27.6045 17.6867 27.614 17.7068 27.614Z" fill="#0099B8"/>
<path d="M17.6 28.4712C17.6 28.5366 17.6519 28.5901 17.716 28.5901C17.7798 28.5901 17.8318 28.5366 17.8318 28.4712C17.8318 28.4058 17.7798 28.3524 17.716 28.3524C17.7153 28.3524 17.7148 28.3527 17.7143 28.3527C17.714 28.3512 17.7138 28.3503 17.7135 28.3493C17.7034 28.326 17.7123 28.3019 17.7133 28.2993C17.7183 28.2878 17.7133 28.2744 17.7023 28.2691C17.6995 28.2677 17.6962 28.2671 17.6933 28.2671C17.6845 28.2671 17.6766 28.2724 17.6729 28.2805C17.6712 28.2843 17.6562 28.3208 17.6704 28.3612L17.6706 28.3617C17.6291 28.3801 17.6 28.4222 17.6 28.4712Z" fill="#0099B8"/>
<path d="M17.8764 28.4558C17.8764 28.5212 17.9284 28.5746 17.9922 28.5746C18.0563 28.5746 18.1082 28.5212 18.1082 28.4558C18.1082 28.3904 18.0563 28.3371 17.9926 28.337L17.9922 28.3352C17.992 28.3342 17.9916 28.333 17.9911 28.3316C17.9805 28.3067 17.991 28.2814 17.9911 28.2812C17.9959 28.2697 17.991 28.2564 17.9799 28.2516C17.977 28.2501 17.974 28.2495 17.9708 28.2495C17.9621 28.2495 17.9541 28.2548 17.9507 28.2629C17.949 28.2666 17.9338 28.303 17.9482 28.3433L17.949 28.3456C17.9066 28.3635 17.8764 28.4059 17.8764 28.4558Z" fill="#0099B8"/>
<path d="M18.1479 28.4252C18.1479 28.491 18.1999 28.5441 18.2639 28.5441C18.3276 28.5441 18.3798 28.4909 18.3798 28.4252C18.3798 28.3688 18.3411 28.3216 18.2895 28.3097H18.2893C18.283 28.3082 18.2764 28.3074 18.2698 28.3072C18.2689 28.3072 18.2678 28.3066 18.2669 28.3066H18.2661H18.2643L18.2639 28.304C18.2635 28.3028 18.2632 28.3019 18.2627 28.3004C18.2527 28.2768 18.2617 28.2532 18.2627 28.2503C18.2676 28.239 18.2627 28.2254 18.2515 28.2204C18.2487 28.219 18.2456 28.2183 18.2425 28.2183C18.2339 28.2183 18.2259 28.2237 18.2222 28.2318C18.2204 28.2355 18.2055 28.2715 18.2197 28.3121L18.2206 28.3152C18.1782 28.3328 18.1479 28.3755 18.1479 28.4252Z" fill="#0099B8"/>
<path d="M18.4136 28.3741C18.4136 28.4394 18.4657 28.4929 18.5295 28.4929C18.5936 28.4929 18.6455 28.4394 18.6455 28.3741C18.6455 28.3086 18.5936 28.2553 18.53 28.2551L18.5295 28.2537C18.5293 28.2525 18.5289 28.2512 18.5283 28.2499C18.5177 28.225 18.5282 28.1999 18.5283 28.1993C18.5332 28.1883 18.5282 28.1747 18.5173 28.1697C18.5143 28.1683 18.5114 28.168 18.5082 28.168C18.4995 28.168 18.4915 28.173 18.488 28.1811C18.4861 28.1851 18.4711 28.2211 18.4854 28.2619L18.4863 28.2637C18.4437 28.2817 18.4136 28.3242 18.4136 28.3741Z" fill="#0099B8"/>
<path d="M18.7795 28.2038H18.7793C18.7792 28.2041 18.7792 28.2041 18.779 28.2041C18.769 28.2086 18.7601 28.2148 18.7518 28.2217C18.7518 28.2219 18.7516 28.2219 18.7514 28.2222C18.7259 28.2439 18.7092 28.2764 18.7092 28.3131C18.7092 28.3786 18.7613 28.4319 18.8252 28.4319C18.8891 28.4319 18.941 28.3786 18.941 28.3131C18.941 28.269 18.9174 28.231 18.8826 28.2105C18.8785 28.2079 18.8747 28.2057 18.8705 28.2035C18.8696 28.2031 18.8689 28.203 18.8683 28.2026C18.862 28.2002 18.8554 28.1982 18.8488 28.1967C18.8478 28.1963 18.8472 28.1963 18.8461 28.196C18.8404 28.1949 18.8343 28.1941 18.8282 28.1938H18.8257L18.825 28.1913C18.8248 28.1899 18.8245 28.1888 18.8238 28.1877C18.8142 28.1651 18.8222 28.1422 18.8238 28.1375C18.8287 28.126 18.8238 28.1126 18.8128 28.1074C18.8097 28.1062 18.8069 28.1055 18.8036 28.1055C18.7948 28.1055 18.7871 28.1107 18.7834 28.1188C18.7818 28.1227 18.7669 28.1591 18.781 28.1993L18.7821 28.2025L18.7805 28.2031C18.7802 28.2035 18.7798 28.2035 18.7795 28.2038Z" fill="#0099B8"/>
<path d="M19.0144 28.2549C19.0144 28.3205 19.0663 28.3739 19.1302 28.3739C19.1942 28.3739 19.2461 28.3204 19.2461 28.2549C19.2461 28.1892 19.1942 28.1361 19.1304 28.1361L19.1301 28.1359C19.1299 28.1345 19.1296 28.1334 19.1291 28.1323C19.1185 28.1071 19.1289 28.0822 19.1291 28.0818C19.1338 28.0705 19.1289 28.0571 19.1179 28.0521C19.1149 28.0506 19.1119 28.0498 19.1089 28.0498C19.1001 28.0498 19.092 28.0552 19.0886 28.0633C19.0869 28.0674 19.072 28.1034 19.0861 28.144L19.0865 28.145C19.0442 28.1628 19.0144 28.2053 19.0144 28.2549Z" fill="#0099B8"/>
<path d="M19.3663 28.0499C19.3578 28.054 19.3499 28.0594 19.3427 28.0655C19.3419 28.0661 19.3411 28.0665 19.3403 28.0672C19.3152 28.0889 19.2989 28.1213 19.2989 28.1575C19.2989 28.223 19.3508 28.2764 19.4149 28.2764C19.4787 28.2764 19.5307 28.2229 19.5307 28.1575C19.5307 28.1186 19.5121 28.0844 19.4838 28.0626C19.4654 28.048 19.443 28.0389 19.4179 28.0384L19.4154 28.0379L19.4148 28.0355C19.4144 28.034 19.4142 28.0331 19.4137 28.0319C19.4037 28.0084 19.4124 27.9846 19.4135 27.9818C19.4186 27.9703 19.4136 27.9569 19.4026 27.9517C19.3996 27.9504 19.3965 27.9497 19.3932 27.9497C19.3846 27.9497 19.3767 27.955 19.3732 27.9632C19.3715 27.9673 19.3566 28.0034 19.3707 28.0439L19.3717 28.0467L19.369 28.0482C19.3679 28.0486 19.3672 28.0494 19.3663 28.0499Z" fill="#0099B8"/>
<path d="M19.5765 28.0644C19.5765 28.1301 19.6288 28.1832 19.6925 28.1832C19.7565 28.1832 19.8084 28.1301 19.8084 28.0644C19.8084 27.999 19.7565 27.9457 19.6927 27.9455L19.6925 27.945C19.6922 27.9436 19.692 27.9425 19.6913 27.9411C19.6811 27.9167 19.6909 27.8921 19.6913 27.891C19.6962 27.8794 19.6912 27.8661 19.6804 27.8611C19.6774 27.8597 19.6742 27.8589 19.671 27.8589C19.6624 27.8589 19.6545 27.8641 19.651 27.8723C19.6492 27.8764 19.6342 27.9128 19.6483 27.9528L19.649 27.9543C19.6066 27.9722 19.5765 28.0147 19.5765 28.0644Z" fill="#0099B8"/>
<path d="M19.8602 27.9772C19.8602 28.0425 19.9122 28.0961 19.9761 28.0961C20.0402 28.0961 20.092 28.0425 20.092 27.9772C20.092 27.9139 20.0431 27.8621 19.982 27.859C19.9811 27.8587 19.9804 27.8585 19.9792 27.8585H19.9785C19.978 27.8585 19.9772 27.8582 19.9767 27.8582L19.976 27.856C19.9758 27.8546 19.9755 27.8534 19.975 27.8524C19.9646 27.8278 19.9745 27.8032 19.975 27.8021C19.9797 27.7907 19.9748 27.7771 19.964 27.7721C19.9609 27.7708 19.9579 27.77 19.9547 27.77C19.9461 27.77 19.9381 27.7754 19.9347 27.7836C19.9337 27.7851 19.9175 27.8226 19.9319 27.864L19.933 27.867C19.8904 27.8848 19.8602 27.9273 19.8602 27.9772Z" fill="#0099B8"/>
<path d="M20.2287 27.7666C20.2193 27.771 20.2108 27.7768 20.2029 27.7834C20.2027 27.7835 20.2024 27.7839 20.2021 27.7841C20.1767 27.8061 20.16 27.8383 20.16 27.8747C20.16 27.9404 20.2122 27.9936 20.276 27.9936C20.34 27.9936 20.3919 27.9404 20.3919 27.8747C20.3919 27.831 20.3681 27.7928 20.3334 27.7722C20.3293 27.7699 20.3255 27.7674 20.3211 27.7652H20.3204C20.3137 27.7621 20.3066 27.76 20.2991 27.7583C20.2926 27.7568 20.2861 27.7558 20.279 27.7558L20.2762 27.7556L20.2757 27.7533C20.2755 27.752 20.275 27.7507 20.2744 27.7494C20.264 27.7247 20.2744 27.6995 20.2744 27.6994C20.2794 27.6878 20.2744 27.6745 20.2634 27.6695C20.2605 27.668 20.2576 27.6675 20.2544 27.6675C20.2456 27.6675 20.2376 27.6725 20.234 27.6807C20.2334 27.6822 20.217 27.7199 20.2316 27.7614L20.2327 27.7645L20.2298 27.7656C20.2296 27.7658 20.2293 27.7663 20.2287 27.7666Z" fill="#0099B8"/>
<path d="M22.4839 27.7599C22.5808 27.87 22.7005 28.0063 22.8288 28.1235C23.148 28.4346 23.4392 28.4505 23.4944 28.4505C23.6856 28.4505 23.8403 28.3653 23.9257 28.3052C23.914 28.2774 23.9022 28.2505 23.8905 28.2243C23.8198 28.2762 23.6741 28.3637 23.4944 28.3637C23.4638 28.3637 23.1893 28.3554 22.886 28.06C22.7598 27.9446 22.6415 27.8103 22.5469 27.7021C22.4895 27.6366 22.4405 27.581 22.3978 27.5381C22.2916 27.4306 22.1622 27.3415 22.0148 27.271C21.9643 27.2781 21.9105 27.2868 21.8551 27.2971C21.9996 27.3508 22.182 27.442 22.3385 27.6C22.3798 27.6413 22.4281 27.6964 22.4839 27.7599Z" fill="#0099B8"/>
<path d="M17.8946 26.7397C17.9135 26.7397 17.9337 26.7406 17.9532 26.7413L17.9686 26.7418C17.9824 26.7423 17.9966 26.7426 18.01 26.7426C18.0342 26.7426 18.0523 26.7413 18.0674 26.7388L18.0838 26.7359C18.2748 26.7012 18.4723 26.6652 18.5519 26.5286C18.614 26.4204 18.5986 26.269 18.5079 26.1026L18.497 26.0832C18.4661 26.0286 18.4087 25.9267 18.4925 25.8664C18.5457 25.8283 18.6102 25.7791 18.6385 25.7572C18.6308 25.7231 18.6248 25.6485 18.6999 25.5988C18.7566 25.5612 18.8006 25.565 18.8376 25.5668C18.8598 25.5681 18.8808 25.5705 18.902 25.5581C18.923 25.546 18.941 25.5395 18.9555 25.5395C18.9829 25.5395 18.9918 25.5591 18.9939 25.5649C19.0008 25.5838 18.9922 25.6067 18.9716 25.624C18.9664 25.6285 18.9559 25.6369 18.9415 25.6479C18.8948 25.6846 18.7528 25.7958 18.7344 25.834C18.7202 25.8638 18.7004 25.9367 18.7186 25.9703C18.7238 25.98 18.732 25.985 18.7453 25.9865C18.9132 25.977 19.0285 25.8217 19.0411 25.8039C19.0732 25.7486 19.0841 25.7207 19.1039 25.6695C19.1133 25.6457 19.1279 25.6086 19.1489 25.5586C19.1587 25.5355 19.1767 25.5012 19.2022 25.4564C19.1548 25.4418 19.103 25.4344 19.0479 25.4344C19.0029 25.4344 18.9674 25.4392 18.9482 25.442L18.9386 25.4433C18.6483 25.4968 18.4614 25.747 18.4595 25.7496C18.4085 25.8215 18.3543 25.8583 18.2985 25.8583C18.2477 25.8583 18.2155 25.8273 18.2095 25.8212C18.1874 25.7992 18.1462 25.7588 18.2052 25.6298C18.2548 25.5215 18.2349 25.3671 18.1601 25.2782C18.1137 25.2231 18.0208 25.2148 17.9696 25.2148C17.9401 25.2148 17.9194 25.2174 17.9157 25.2179L17.9063 25.219C17.8562 25.231 17.7195 25.282 17.5701 25.4905C17.5044 25.5823 17.4273 25.6776 17.3402 25.7745C17.2898 25.8431 17.2195 25.9 17.1571 25.9505C17.0889 26.0054 17.0304 26.0527 17.0217 26.0947L17.0208 26.0993C17.0169 26.1189 17.0111 26.149 16.99 26.1676C16.9656 26.1884 16.9446 26.1887 16.9243 26.1889C16.9014 26.1892 16.8734 26.1897 16.8178 26.2129C16.7483 26.2419 16.7126 26.3074 16.7082 26.4124C16.7086 26.4802 16.731 26.5524 16.7746 26.6268C16.8064 26.6812 16.8462 26.729 16.8925 26.7688C16.9218 26.792 16.9594 26.804 17.0038 26.804C17.0524 26.804 17.1075 26.7895 17.1553 26.7639C17.25 26.7134 17.2737 26.6424 17.2879 26.6002C17.2922 26.588 17.2954 26.5783 17.2994 26.57C17.308 26.5514 17.3561 26.4571 17.4284 26.4571C17.4594 26.4571 17.4886 26.474 17.5151 26.5077C17.5317 26.5289 17.5386 26.5522 17.5358 26.5769C17.5302 26.6247 17.4888 26.6627 17.4581 26.6871C17.4539 26.6904 17.433 26.7082 17.4301 26.7321C17.4284 26.7454 17.433 26.7587 17.4436 26.7721C17.4484 26.7807 17.4675 26.8105 17.5237 26.8105C17.5307 26.8105 17.538 26.8099 17.5456 26.8092C17.5907 26.8039 17.635 26.7911 17.6778 26.7791C17.7197 26.7671 17.7697 26.7527 17.8175 26.7473C17.8343 26.7423 17.8596 26.7397 17.8946 26.7397ZM17.6569 25.8698C17.6106 25.8592 17.5606 25.8351 17.5198 25.8041L17.5052 25.7929L17.4965 25.8092C17.4906 25.8204 17.4849 25.8311 17.4794 25.8417C17.4774 25.8456 17.4732 25.8473 17.465 25.8479C17.4594 25.8462 17.4559 25.8405 17.4565 25.8344C17.4666 25.7575 17.4921 25.6845 17.5329 25.6179C17.5554 25.5814 17.5819 25.5505 17.6119 25.5256C17.64 25.501 17.6792 25.481 17.7229 25.4697C17.7567 25.4598 17.7924 25.4548 17.8286 25.4548L17.8405 25.4551C17.8794 25.4566 17.9183 25.4634 17.9561 25.4755C17.9737 25.4814 17.9912 25.4879 18.0088 25.4949L18.0655 25.5212C18.0794 25.5281 18.0935 25.5353 18.1071 25.5408C18.124 25.5482 18.1384 25.5532 18.1539 25.5536C18.1595 25.5539 18.1645 25.5581 18.1654 25.564C18.1666 25.5698 18.1637 25.5751 18.1581 25.5774C18.1452 25.5833 18.127 25.5856 18.1044 25.5846L18.0972 25.5841L18.0922 25.5896C18.0801 25.6027 18.0696 25.6188 18.0572 25.6436L18.0461 25.6657C18.0369 25.6843 18.0255 25.7075 18.0121 25.7291C17.9932 25.7599 17.9708 25.7862 17.946 25.8074C17.9177 25.8302 17.8874 25.8479 17.8555 25.859C17.795 25.8822 17.7238 25.8861 17.6569 25.8698Z" fill="#0099B8"/>
<path d="M17.9598 25.6916C17.9697 25.6784 17.9789 25.6649 17.9886 25.6504L17.989 25.65C17.9967 25.6383 18.0048 25.6263 18.0134 25.6147C18.0224 25.6025 18.031 25.5919 18.04 25.5826L18.0138 25.5769C17.9874 25.5708 17.9623 25.5652 17.9372 25.5608C17.9023 25.5545 17.8665 25.5526 17.8303 25.5543C17.8395 25.5678 17.8464 25.5821 17.851 25.5972C17.8742 25.6761 17.8306 25.7597 17.7537 25.7835C17.7398 25.7879 17.7256 25.79 17.7114 25.79C17.6518 25.79 17.5983 25.7526 17.5762 25.696C17.5615 25.7161 17.5472 25.7381 17.5325 25.7623C17.5836 25.7878 17.6265 25.8021 17.6677 25.8076C17.7276 25.8152 17.7836 25.8095 17.8314 25.7904C17.8822 25.7721 17.9253 25.7388 17.9598 25.6916Z" fill="#0099B8"/>
</svg>
